<svg width="22" height="22" viewBox="0 0 22 22" fill="none" xmlns="http://www.w3.org/2000/svg">
<path fill-rule="evenodd" clip-rule="evenodd" d="M9.15118 0.512264C10.1073 -0.170732 11.3918 -0.170756 12.348 0.512202L19.5108 5.62828C20.7591 6.51991 21.5 7.95952 21.5 9.49357V17.2922C21.5 19.3633 19.8211 21.0422 17.75 21.0422H14.8924C13.3737 21.0422 12.1424 19.811 12.1424 18.2922V16.7922C12.1424 16.378 11.8067 16.0422 11.3924 16.0422H10.1067C9.69251 16.0422 9.35672 16.378 9.35672 16.7922V18.2922C9.35672 19.811 8.12551 21.0422 6.60672 21.0422H3.75C1.67893 21.0422 0 19.3633 0 17.2922V9.49347C0 7.95949 0.740805 6.51993 1.98904 5.62829L9.15118 0.512264ZM11.4762 1.73282C11.0415 1.42238 10.4577 1.42239 10.0231 1.73285L2.86092 6.84888C2.00687 7.45894 1.5 8.4439 1.5 9.49347V17.2922C1.5 18.5348 2.50736 19.5422 3.75 19.5422H6.60672C7.29708 19.5422 7.85672 18.9825 7.85672 18.2922V16.7922C7.85672 15.5496 8.86408 14.5422 10.1067 14.5422H11.3924C12.6351 14.5422 13.6424 15.5496 13.6424 16.7922V18.2922C13.6424 18.9825 14.2021 19.5422 14.8924 19.5422H17.75C18.9926 19.5422 20 18.5348 20 17.2922V9.49357C20 8.44396 19.4931 7.45896 18.639 6.8489L11.4762 1.73282Z" fill="#80C0EF"/>
</svg>
