<svg width="24" height="24" viewBox="0 0 24 24" fill="none" xmlns="http://www.w3.org/2000/svg">
<path fill-rule="evenodd" clip-rule="evenodd" d="M21.714 8.148L16.259 2.363C16.07 2.164 15.803 2 15.529 2H3.979C2.874 2 2 3 2 4.104V11.104C2 11.656 2.437 12 2.989 12H2.994C3.547 12 4 11.656 4 11.104V5.104C4 4.552 4.427 4 4.979 4H14V8.104C14 9.209 14.874 10 15.979 10H20V11.104C20 11.656 20.437 12 20.989 12H20.994C21.547 12 22 11.656 22 11.104V8.837C22 8.58 21.891 8.334 21.714 8.148ZM5.979 17.104C5.979 16.552 5.531 16.104 4.979 16.104H3.979V18.104H4.979C5.531 18.104 5.979 17.656 5.979 17.104ZM7.975 16.838C8.065 18.568 6.689 20 4.979 20H4V21.104C4 21.656 3.547 22 2.994 22H2.989C2.437 22 2 21.656 2 21.104V15.104C2 14.552 2.427 14 2.979 14H4.809C6.434 14 7.89 15.216 7.975 16.838ZM13 17.104C13 16.552 12.531 16 11.979 16H11V20H11.979C12.531 20 13 19.656 13 19.104V17.104ZM15 17V19C15 20.65 13.65 22 12 22H9.895C9.4 22 9 21.599 9 21.104V14.979C9 14.438 9.438 14 9.979 14H12C13.65 14 15 15.35 15 17ZM22 15.026V15.052C22 15.604 21.531 16 20.979 16H18V18H20.979C21.531 18 22 18.473 22 19.026V19.052C22 19.604 21.531 20 20.979 20H18V21.104C18 21.656 17.547 22 16.994 22H16.989C16.437 22 16 21.656 16 21.104V15.104C16 14.552 16.427 14 16.979 14H20.979C21.531 14 22 14.473 22 15.026Z" fill="#0082DE"/>
</svg>
