<svg width="42" height="38" viewBox="0 0 42 38" fill="none" xmlns="http://www.w3.org/2000/svg">
<path d="M7.64832 13.4742C5.83556 13.9304 4.25176 15.0328 3.19448 16.5743C2.1372 18.1159 1.67922 19.9904 1.90658 21.8458C2.13394 23.7012 3.031 25.4097 4.42922 26.6504C5.82743 27.891 7.63056 28.5784 9.49982 28.5833H11.4165M20.9998 19V36.25V19ZM20.9998 19L16.2082 22.8333L20.9998 19ZM20.9998 19L25.7915 22.8333L20.9998 19Z" stroke="#0082DE" stroke-width="2" stroke-linecap="round" stroke-linejoin="round"/>
<path d="M28.3406 9.68115C27.6855 7.08709 26.0686 4.83916 23.8175 3.39307C21.5665 1.94697 18.8498 1.41091 16.2182 1.89355C13.5866 2.3762 11.2369 3.84143 9.64556 5.99222C8.0542 8.14302 7.34019 10.8184 7.64828 13.4762C7.64828 13.4762 7.94153 15.1667 8.54144 16.125" stroke="#0082DE" stroke-width="2" stroke-linecap="round" stroke-linejoin="round"/>
<path d="M30.5832 28.5834C31.9364 28.5824 33.2741 28.2949 34.5082 27.7398C35.7424 27.1846 36.8449 26.3743 37.7433 25.3623C38.6417 24.3504 39.3156 23.1596 39.7207 21.8684C40.1257 20.5772 40.2527 19.2148 40.0932 17.871C39.9338 16.5272 39.4916 15.2324 38.7957 14.0718C38.0998 12.9112 37.166 11.9111 36.0557 11.1374C34.9454 10.3638 33.6839 9.83398 32.3542 9.58298C31.0244 9.33198 29.6566 9.36545 28.3407 9.68119L25.7915 10.375" stroke="#0082DE" stroke-width="2" stroke-linecap="round" stroke-linejoin="round"/>
</svg>
